<svg width="49" height="50" viewBox="0 0 49 50" fill="none" xmlns="http://www.w3.org/2000/svg">
<path fill-rule="evenodd" clip-rule="evenodd" d="M24.5 45.3125C27.9946 45.3177 31.4284 44.3798 34.4531 42.5938V35.9375C34.4531 34.0727 33.7271 32.2843 32.4349 30.9657C31.1427 29.647 29.39 28.9062 27.5625 28.9062H21.4375C19.61 28.9062 17.8573 29.647 16.5651 30.9657C15.2729 32.2843 14.5469 34.0727 14.5469 35.9375V42.5938C17.5716 44.3798 21.0054 45.3177 24.5 45.3125ZM39.0469 35.9375V38.8656C41.695 35.9728 43.4571 32.3535 44.1166 28.4526C44.776 24.5516 44.304 20.5391 42.7586 16.9082C41.2132 13.2773 38.6618 10.1863 35.418 8.01514C32.1742 5.84398 28.3794 4.68731 24.5 4.68731C20.6206 4.68731 16.8258 5.84398 13.582 8.01514C10.3382 10.1863 7.78675 13.2773 6.24137 16.9082C4.696 20.5391 4.22402 24.5516 4.88344 28.4526C5.54287 32.3535 7.30497 35.9728 9.95312 38.8656V35.9375C9.95221 33.5213 10.6833 31.1638 12.0462 29.188C13.4091 27.2121 15.3372 25.7144 17.5665 24.9C16.4101 23.5427 15.6606 21.8746 15.4076 20.0947C15.1546 18.3148 15.4087 16.4981 16.1396 14.8615C16.8705 13.2249 18.0473 11.8373 19.5297 10.8643C21.012 9.89133 22.7374 9.37398 24.5 9.37398C26.2626 9.37398 27.988 9.89133 29.4703 10.8643C30.9527 11.8373 32.1295 13.2249 32.8604 14.8615C33.5913 16.4981 33.8454 18.3148 33.5924 20.0947C33.3394 21.8746 32.5899 23.5427 31.4335 24.9C33.6628 25.7144 35.591 27.2121 36.9538 29.188C38.3167 31.1638 39.0478 33.5213 39.0469 35.9375ZM24.5 50C30.9978 50 37.2295 47.3661 41.8241 42.6777C46.4188 37.9893 49 31.6304 49 25C49 18.3696 46.4188 12.0107 41.8241 7.32233C37.2295 2.63392 30.9978 0 24.5 0C18.0022 0 11.7705 2.63392 7.17588 7.32233C2.58124 12.0107 0 18.3696 0 25C0 31.6304 2.58124 37.9893 7.17588 42.6777C11.7705 47.3661 18.0022 50 24.5 50ZM29.0938 18.75C29.0938 19.9932 28.6098 21.1855 27.7483 22.0646C26.8868 22.9436 25.7183 23.4375 24.5 23.4375C23.2817 23.4375 22.1132 22.9436 21.2517 22.0646C20.3902 21.1855 19.9062 19.9932 19.9062 18.75C19.9062 17.5068 20.3902 16.3145 21.2517 15.4354C22.1132 14.5564 23.2817 14.0625 24.5 14.0625C25.7183 14.0625 26.8868 14.5564 27.7483 15.4354C28.6098 16.3145 29.0938 17.5068 29.0938 18.75Z" fill="#A8202D"/>
</svg>
