<svg width="75" height="75" viewBox="0 0 75 75" fill="none" xmlns="http://www.w3.org/2000/svg">
<path d="M4.6875 65.4743H70.3125V70.1618H4.6875V65.4743ZM63.2812 25.6306C63.9029 25.6306 64.499 25.3837 64.9385 24.9441C65.3781 24.5046 65.625 23.9084 65.625 23.2868V16.2556C65.6248 15.7739 65.4762 15.304 65.1994 14.9098C64.9226 14.5156 64.5311 14.2162 64.0781 14.0525L38.2969 4.67747C37.7819 4.4913 37.2181 4.4913 36.7031 4.67747L10.9219 14.0525C10.4689 14.2162 10.0774 14.5156 9.80059 14.9098C9.52381 15.304 9.37521 15.7739 9.375 16.2556V23.2868C9.375 23.9084 9.62193 24.5046 10.0615 24.9441C10.501 25.3837 11.0971 25.6306 11.7188 25.6306H14.0625V56.0993H9.375V60.7868H65.625V56.0993H60.9375V25.6306H63.2812ZM14.0625 17.8962L37.5 9.36497L60.9375 17.8962V20.9431H14.0625V17.8962ZM42.1875 56.0993H32.8125V25.6306H42.1875V56.0993ZM18.75 25.6306H28.125V56.0993H18.75V25.6306ZM56.25 56.0993H46.875V25.6306H56.25V56.0993Z" fill="#A8202D"/>
</svg>
