<svg width="40" height="32" viewBox="0 0 40 32" fill="none" xmlns="http://www.w3.org/2000/svg">
<path d="M38.5 12H30V1.5C30 0.67125 29.3288 0 28.5 0H19.5C18.6712 0 18 0.67125 18 1.5V6H14V1C14 0.4475 13.5525 0 13 0H12C11.4475 0 11 0.4475 11 1V6H7V1C7 0.4475 6.5525 0 6 0H5C4.4475 0 4 0.4475 4 1V6H1.5C0.67125 6 0 6.67125 0 7.5V30C0 31.1044 0.895625 32 2 32H38C39.1044 32 40 31.1044 40 30V13.5C40 12.6713 39.3281 12 38.5 12ZM8 25.25C8 25.6644 7.66437 26 7.25 26H4.75C4.33563 26 4 25.6644 4 25.25V22.75C4 22.3356 4.33563 22 4.75 22H7.25C7.66437 22 8 22.3356 8 22.75V25.25ZM8 19.25C8 19.6644 7.66437 20 7.25 20H4.75C4.33563 20 4 19.6644 4 19.25V16.75C4 16.3356 4.33563 16 4.75 16H7.25C7.66437 16 8 16.3356 8 16.75V19.25ZM8 13.25C8 13.6644 7.66437 14 7.25 14H4.75C4.33563 14 4 13.6644 4 13.25V10.75C4 10.3356 4.33563 10 4.75 10H7.25C7.66437 10 8 10.3356 8 10.75V13.25ZM16 25.25C16 25.6644 15.6644 26 15.25 26H12.75C12.3356 26 12 25.6644 12 25.25V22.75C12 22.3356 12.3356 22 12.75 22H15.25C15.6644 22 16 22.3356 16 22.75V25.25ZM16 19.25C16 19.6644 15.6644 20 15.25 20H12.75C12.3356 20 12 19.6644 12 19.25V16.75C12 16.3356 12.3356 16 12.75 16H15.25C15.6644 16 16 16.3356 16 16.75V19.25ZM16 13.25C16 13.6644 15.6644 14 15.25 14H12.75C12.3356 14 12 13.6644 12 13.25V10.75C12 10.3356 12.3356 10 12.75 10H15.25C15.6644 10 16 10.3356 16 10.75V13.25ZM26 19.25C26 19.6644 25.6644 20 25.25 20H22.75C22.3356 20 22 19.6644 22 19.25V16.75C22 16.3356 22.3356 16 22.75 16H25.25C25.6644 16 26 16.3356 26 16.75V19.25ZM26 13.25C26 13.6644 25.6644 14 25.25 14H22.75C22.3356 14 22 13.6644 22 13.25V10.75C22 10.3356 22.3356 10 22.75 10H25.25C25.6644 10 26 10.3356 26 10.75V13.25ZM26 7.25C26 7.66437 25.6644 8 25.25 8H22.75C22.3356 8 22 7.66437 22 7.25V4.75C22 4.33563 22.3356 4 22.75 4H25.25C25.6644 4 26 4.33563 26 4.75V7.25ZM36 25.25C36 25.6644 35.6644 26 35.25 26H32.75C32.3356 26 32 25.6644 32 25.25V22.75C32 22.3356 32.3356 22 32.75 22H35.25C35.6644 22 36 22.3356 36 22.75V25.25ZM36 19.25C36 19.6644 35.6644 20 35.25 20H32.75C32.3356 20 32 19.6644 32 19.25V16.75C32 16.3356 32.3356 16 32.75 16H35.25C35.6644 16 36 16.3356 36 16.75V19.25Z" fill="#A8202D"/>
</svg>
