<svg width="40" height="40" viewBox="0 0 40 40" fill="none" xmlns="http://www.w3.org/2000/svg">
<path d="M23.6001 17.3333L15.2667 11.3833C14.1001 10.55 12.5501 10.55 11.4001 11.3833L3.06675 17.3333C2.18341 17.9666 1.66675 18.9666 1.66675 20.05V33.3333C1.66675 34.25 2.41675 35 3.33341 35H10.0001V25H16.6667V35H23.3334C24.2501 35 25.0001 34.25 25.0001 33.3333V20.05C25.0001 18.9666 24.4834 17.9666 23.6001 17.3333Z" fill="#A8202D"/>
<path d="M35.0501 5H19.9501C18.1334 5 16.6667 6.46667 16.6667 8.28333L16.8167 8.43333C16.9501 8.51667 17.0834 8.58333 17.2167 8.66667L25.5501 14.6167C26.8167 15.5167 27.7167 16.85 28.1167 18.3333H31.6667V21.6667H28.3334V25H31.6667V28.3333H28.3334V35H35.0501C36.8667 35 38.3334 33.5333 38.3334 31.7167V8.28333C38.3334 6.46667 36.8667 5 35.0501 5ZM31.6667 15H28.3334V11.6667H31.6667V15Z" fill="#A8202D"/>
</svg>
