<svg width="56" height="56" viewBox="0 0 56 56" fill="none" xmlns="http://www.w3.org/2000/svg">
<path d="M28 12.5998C30.7038 12.5998 32.9 10.4036 32.9 7.6998C32.9 4.99605 30.7038 2.7998 28 2.7998C25.2962 2.7998 23.1 4.99605 23.1 7.6998C23.1 10.4036 25.2962 12.5998 28 12.5998ZM20.4225 25.5411L22.4 23.5636V29.6273C22.4 32.0773 23.4675 34.4136 25.3313 36.0061L31.5787 41.3611C32.095 41.8073 32.4362 42.4198 32.5325 43.0936L33.635 50.8023C33.8537 52.3336 35.2712 53.4011 36.8025 53.1823C38.3337 52.9636 39.4012 51.5461 39.1825 50.0148L38.08 42.3061C37.7913 40.2848 36.7763 38.4473 35.2275 37.1173L32.2087 34.5273V24.4473L32.5412 24.8586C34.1337 26.8536 36.5487 28.0086 39.1037 28.0086H42.0088C43.5575 28.0086 44.8087 26.7573 44.8087 25.2086C44.8087 23.6598 43.5575 22.4086 42.0088 22.4086H39.1037C38.255 22.4086 37.45 22.0236 36.9162 21.3586L35.35 19.3986C33.3375 16.8786 30.2838 15.4086 27.055 15.4086C24.2375 15.4086 21.5337 16.5286 19.5475 18.5236L16.4588 21.5773C14.8838 23.1523 14 25.2873 14 27.5186V30.7998C14 32.3486 15.2512 33.5998 16.8 33.5998C18.3488 33.5998 19.6 32.3486 19.6 30.7998V27.5186C19.6 26.7748 19.8975 26.0661 20.4225 25.5411ZM21.5075 41.2386C21.3763 41.6936 21.1312 42.1136 20.7987 42.4461L14.8225 48.4223C13.7287 49.5161 13.7287 51.2923 14.8225 52.3861C15.9162 53.4798 17.6925 53.4798 18.7862 52.3861L24.7625 46.4098C25.7688 45.4036 26.5037 44.1523 26.8975 42.7786L27.09 42.1136L23.065 38.6661C22.8463 38.4736 22.6275 38.2811 22.4175 38.0711L21.5075 41.2386Z" fill="#A8202D"/>
</svg>
