<svg width="40" height="40" viewBox="0 0 40 40" fill="none" xmlns="http://www.w3.org/2000/svg">
<path d="M33.34 19.1666C33.7485 19.1662 34.1429 19.3159 34.4483 19.5872C34.7537 19.8585 34.9489 20.2325 34.9967 20.6382L35.0067 20.8332V28.3332C35.0069 30.7005 34.0913 32.976 32.4516 34.6834C30.8119 36.3908 28.5753 37.3977 26.21 37.4932L25.84 37.4999H13.75C12.7858 37.5003 11.8513 37.1663 11.1058 36.5548C10.3602 35.9433 9.84988 35.0922 9.66167 34.1466H13.5733L13.66 34.1616L13.75 34.1666H25.84C27.3288 34.1674 28.7616 33.5989 29.8448 32.5776C30.9281 31.5563 31.5799 30.1595 31.6667 28.6732L31.6767 28.3532V20.8332C31.6767 20.3912 31.8523 19.9673 32.1648 19.6547C32.4774 19.3422 32.9013 19.1666 33.3433 19.1666M28.3333 15.8116C28.7418 15.8112 29.1363 15.9609 29.4417 16.2322C29.7471 16.5035 29.9422 16.8775 29.99 17.2832L30 17.4782V28.3116C30.0002 29.3692 29.5982 30.3872 28.8755 31.1594C28.1529 31.9316 27.1636 32.4001 26.1083 32.4699L25.8333 32.4799H9.16667C8.1088 32.4801 7.09048 32.0778 6.31826 31.3548C5.54603 30.6318 5.07773 29.6421 5.00833 28.5866L5 28.3132V17.4966C5.00089 17.0719 5.16385 16.6636 5.4556 16.355C5.74734 16.0464 6.14588 15.8609 6.56982 15.8362C6.99376 15.8115 7.41114 15.9496 7.73671 16.2223C8.06229 16.4949 8.27152 16.8815 8.32167 17.3032L8.33333 17.4966V28.3132C8.33327 28.5083 8.40162 28.6972 8.52648 28.847C8.65135 28.9968 8.82481 29.0981 9.01667 29.1332L9.16667 29.1466H25.8333C26.0284 29.1466 26.2173 29.0783 26.3671 28.9534C26.5169 28.8285 26.6182 28.6551 26.6533 28.4632L26.6667 28.3132V17.4782C26.6667 17.0362 26.8423 16.6123 27.1548 16.2997C27.4674 15.9872 27.8913 15.8116 28.3333 15.8116ZM10.4867 9.65489L16.3167 3.82156C16.6034 3.53435 16.9852 3.36166 17.3902 3.33589C17.7953 3.31011 18.1958 3.43302 18.5167 3.68156L18.6733 3.82156L24.51 9.65489C24.8065 9.95517 24.9781 10.3568 24.9901 10.7786C25.0021 11.2005 24.8536 11.6112 24.5746 11.9278C24.2956 12.2445 23.9069 12.4435 23.4869 12.4847C23.0669 12.5259 22.6469 12.4063 22.3117 12.1499L22.155 12.0116L19.165 9.02489V23.7582C19.1649 24.1665 19.0151 24.5605 18.7438 24.8655C18.4725 25.1706 18.0988 25.3655 17.6933 25.4132L17.5 25.4249C17.0915 25.4252 16.6971 25.2756 16.3917 25.0043C16.0863 24.733 15.8911 24.3589 15.8433 23.9532L15.8333 23.7582V9.01989L12.8433 12.0116C12.5563 12.2985 12.1745 12.4709 11.7695 12.4964C11.3644 12.5218 10.964 12.3986 10.6433 12.1499L10.4867 12.0116C10.1995 11.7248 10.0268 11.3431 10.001 10.938C9.97522 10.533 10.0981 10.1324 10.3467 9.81156L10.4867 9.65489Z" fill="#A8202D"/>
</svg>
