<svg width="40" height="40" viewBox="0 0 40 40" fill="none" xmlns="http://www.w3.org/2000/svg">
<path d="M26.6667 18.3333C29.4334 18.3333 31.6501 16.0999 31.6501 13.3333C31.6501 10.5666 29.4334 8.33325 26.6667 8.33325C23.9001 8.33325 21.6667 10.5666 21.6667 13.3333C21.6667 16.0999 23.9001 18.3333 26.6667 18.3333ZM13.3334 18.3333C16.1001 18.3333 18.3167 16.0999 18.3167 13.3333C18.3167 10.5666 16.1001 8.33325 13.3334 8.33325C10.5667 8.33325 8.33342 10.5666 8.33342 13.3333C8.33342 16.0999 10.5667 18.3333 13.3334 18.3333ZM13.3334 21.6666C9.45008 21.6666 1.66675 23.6166 1.66675 27.4999V31.6666H25.0001V27.4999C25.0001 23.6166 17.2167 21.6666 13.3334 21.6666ZM26.6667 21.6666C26.1834 21.6666 25.6334 21.6999 25.0501 21.7499C26.9834 23.1499 28.3334 25.0333 28.3334 27.4999V31.6666H38.3334V27.4999C38.3334 23.6166 30.5501 21.6666 26.6667 21.6666Z" fill="#A8202D"/>
</svg>
