<svg width="32" height="35" viewBox="0 0 32 35" fill="none" xmlns="http://www.w3.org/2000/svg">
<path d="M28.6586 19.0792C29.829 17.3968 30.5356 15.4358 30.7072 13.3935C30.8788 11.3512 30.5093 9.29975 29.6361 7.44563C28.7628 5.5915 27.4165 4.00013 25.7327 2.8317C24.049 1.66327 22.0871 0.959019 20.0446 0.789827C18.0021 0.620635 15.9511 0.992476 14.098 1.86792C12.2449 2.74337 10.6551 4.09152 9.48867 5.77669C8.32222 7.46185 7.62028 9.42456 7.4535 11.4672C7.28671 13.5099 7.66097 15.5605 8.53859 17.4126" stroke="#A8202D" stroke-width="1.5" stroke-linecap="round" stroke-linejoin="round"/>
<path d="M19.0836 7.41252C17.2419 7.41252 15.7502 8.53252 15.7502 9.91252C15.7502 11.2925 17.2419 12.4125 19.0836 12.4125C20.9252 12.4125 22.4169 13.5325 22.4169 14.9125C22.4169 16.2925 20.9252 17.4125 19.0836 17.4125M19.0836 7.41252C20.5336 7.41252 21.7702 8.10752 22.2269 9.07918M19.0836 7.41252V5.74585M19.0836 17.4125C17.6336 17.4125 16.3969 16.7175 15.9402 15.7458M19.0836 17.4125V19.0792" stroke="#A8202D" stroke-width="1.5" stroke-linecap="round"/>
<path d="M0.750244 20.7458H4.74191C5.23191 20.7458 5.71524 20.8559 6.15358 21.0692L9.55691 22.7158C9.99524 22.9275 10.4786 23.0375 10.9702 23.0375H12.7069C14.3869 23.0375 15.7502 24.3559 15.7502 25.9825C15.7502 26.0492 15.7052 26.1058 15.6402 26.1242L11.4052 27.2959C10.6453 27.5058 9.83502 27.4323 9.12524 27.0892L5.48691 25.3292M15.7502 24.9125L23.4052 22.5608C24.0717 22.3564 24.7857 22.3676 25.4453 22.593C26.105 22.8184 26.6766 23.2463 27.0786 23.8158C27.6936 24.6658 27.4436 25.8858 26.5469 26.4025L14.0219 33.6309C13.6303 33.8575 13.1966 34.0019 12.7473 34.0555C12.298 34.1091 11.8425 34.0707 11.4086 33.9425L0.750244 30.7792" stroke="#A8202D" stroke-width="1.5" stroke-linecap="round" stroke-linejoin="round"/>
</svg>
