<svg width="40" height="40" viewBox="0 0 40 40" fill="none" xmlns="http://www.w3.org/2000/svg">
<path d="M33.3334 33.3333C33.3334 33.7753 33.1578 34.1992 32.8453 34.5118C32.5327 34.8244 32.1088 34.9999 31.6667 34.9999H8.33342C7.89139 34.9999 7.46746 34.8244 7.1549 34.5118C6.84234 34.1992 6.66675 33.7753 6.66675 33.3333V18.3333H1.66675L18.8784 2.68661C19.1853 2.40741 19.5852 2.25269 20.0001 2.25269C20.4149 2.25269 20.8149 2.40741 21.1217 2.68661L38.3334 18.3333H33.3334V33.3333ZM12.5001 21.6666C12.5001 23.6557 13.2903 25.5634 14.6968 26.9699C16.1033 28.3764 18.011 29.1666 20.0001 29.1666C21.9892 29.1666 23.8969 28.3764 25.3034 26.9699C26.7099 25.5634 27.5001 23.6557 27.5001 21.6666H24.1667C24.1667 22.7717 23.7278 23.8315 22.9464 24.6129C22.165 25.3943 21.1052 25.8333 20.0001 25.8333C18.895 25.8333 17.8352 25.3943 17.0538 24.6129C16.2724 23.8315 15.8334 22.7717 15.8334 21.6666H12.5001Z" fill="#A8202D"/>
</svg>
