<svg width="40" height="40" viewBox="0 0 40 40" fill="none" xmlns="http://www.w3.org/2000/svg">
<path d="M32.3566 24.0234C34.9999 21.38 36.6666 19.1667 36.6666 15.8334C36.6666 13.9787 36.1039 12.1677 35.053 10.6395C34.0021 9.11128 32.5124 7.9378 30.7806 7.27404C29.0488 6.61027 27.1563 6.48744 25.3532 6.92178C23.5501 7.35611 21.9212 8.32717 20.6816 9.7067M32.3566 24.0234C32.0279 24.3521 31.6376 24.6129 31.2081 24.7909C30.7785 24.9688 30.3182 25.0604 29.8533 25.0604C29.3883 25.0604 28.928 24.9688 28.4984 24.7909C28.0689 24.6129 27.6786 24.3521 27.3499 24.0234C27.7058 24.3452 27.9926 24.736 28.1928 25.1721C28.393 25.6082 28.5024 26.0805 28.5145 26.5602C28.5266 27.0399 28.441 27.517 28.2629 27.9626C28.0849 28.4082 27.8181 28.8129 27.4788 29.1522C27.1395 29.4915 26.7347 29.7583 26.2891 29.9364C25.8435 30.1144 25.3664 30.2 24.8867 30.188C24.407 30.1759 23.9348 30.0665 23.4987 29.8663C23.0626 29.6661 22.6718 29.3793 22.3499 29.0234C22.6789 29.3511 22.9401 29.7404 23.1185 30.1692C23.2969 30.5979 23.3891 31.0576 23.3897 31.522C23.3903 31.9864 23.2994 32.4463 23.1221 32.8755C22.9449 33.3047 22.6847 33.6948 22.3566 34.0234C22.0399 34.3402 21.6626 34.5899 21.2472 34.7576C20.8318 34.9253 20.3869 35.0076 19.939 34.9995C19.4911 34.9914 19.0495 34.8931 18.6404 34.7105C18.2314 34.5279 17.8633 34.2647 17.5583 33.9367L8.33325 25C5.83325 22.5 3.33325 19.6667 3.33325 15.8334C3.33362 13.9788 3.89649 12.1681 4.94752 10.6401C5.99854 9.11217 7.4883 7.93896 9.22004 7.2754C10.9518 6.61185 12.8441 6.48916 14.647 6.92354C16.4499 7.35792 18.0787 8.32894 19.3183 9.70837C19.5036 9.88059 19.7473 9.97618 20.0002 9.97587C20.2532 9.97556 20.4967 9.87938 20.6816 9.7067M32.3566 24.0234C32.9815 23.3983 33.3325 22.5506 33.3325 21.6667C33.3325 20.7828 32.9815 19.9351 32.3566 19.31L29.2216 16.1734C28.8486 15.8002 28.4057 15.5042 27.9183 15.3022C27.4308 15.1002 26.9084 14.9963 26.3808 14.9963C25.8531 14.9963 25.3307 15.1002 24.8432 15.3022C24.3558 15.5042 23.9129 15.8002 23.5399 16.1734L20.6899 19.0234C20.0648 19.6483 19.2171 19.9993 18.3333 19.9993C17.4494 19.9993 16.6017 19.6483 15.9766 19.0234C15.3517 18.3983 15.0006 17.5506 15.0006 16.6667C15.0006 15.7828 15.3517 14.9351 15.9766 14.31L20.6816 9.7067" stroke="#A8202D" stroke-width="2" stroke-linecap="round" stroke-linejoin="round"/>
</svg>
