<svg width="40" height="40" viewBox="0 0 40 40" fill="none" xmlns="http://www.w3.org/2000/svg">
<path d="M30.8333 5H26.6666C26.4456 5 26.2336 5.0878 26.0773 5.24408C25.921 5.40036 25.8333 5.61232 25.8333 5.83333V5.93167L31.6666 10.5983V5.83333C31.6666 5.61232 31.5788 5.40036 31.4225 5.24408C31.2662 5.0878 31.0543 5 30.8333 5Z" fill="#A8202D"/>
<path d="M17.9167 15.8333C17.9167 15.2808 18.1362 14.7509 18.5269 14.3602C18.9176 13.9695 19.4475 13.75 20.0001 13.75C20.5526 13.75 21.0825 13.9695 21.4732 14.3602C21.8639 14.7509 22.0834 15.2808 22.0834 15.8333C22.0834 16.3859 21.8639 16.9158 21.4732 17.3065C21.0825 17.6972 20.5526 17.9167 20.0001 17.9167C19.4475 17.9167 18.9176 17.6972 18.5269 17.3065C18.1362 16.9158 17.9167 16.3859 17.9167 15.8333Z" fill="#A8202D"/>
<path fill-rule="evenodd" clip-rule="evenodd" d="M34.5833 18.2667L35.8866 19.3101C36.146 19.5123 36.4747 19.604 36.8014 19.5655C37.1281 19.527 37.4264 19.3612 37.6317 19.1042C37.8369 18.8471 37.9326 18.5196 37.898 18.1924C37.8633 17.8653 37.7011 17.5651 37.4466 17.3567L23.9049 6.52342C22.7966 5.63652 21.4194 5.15332 19.9999 5.15332C18.5804 5.15332 17.2032 5.63652 16.0949 6.52342L2.55325 17.3567C2.29422 17.5638 2.12807 17.8653 2.09135 18.1949C2.05462 18.5245 2.15033 18.8552 2.35742 19.1143C2.56451 19.3733 2.86601 19.5394 3.19561 19.5762C3.52521 19.6129 3.85589 19.5172 4.11492 19.3101L5.41659 18.2667V35.4167H3.33325C3.00173 35.4167 2.68379 35.5484 2.44937 35.7829C2.21495 36.0173 2.08325 36.3352 2.08325 36.6667C2.08325 36.9983 2.21495 37.3162 2.44937 37.5506C2.68379 37.7851 3.00173 37.9167 3.33325 37.9167H36.6666C36.9981 37.9167 37.316 37.7851 37.5505 37.5506C37.7849 37.3162 37.9166 36.9983 37.9166 36.6667C37.9166 36.3352 37.7849 36.0173 37.5505 35.7829C37.316 35.5484 36.9981 35.4167 36.6666 35.4167H34.5833V18.2667ZM15.4166 15.8334C15.4166 14.6178 15.8995 13.4521 16.759 12.5925C17.6186 11.733 18.7843 11.2501 19.9999 11.2501C21.2155 11.2501 22.3813 11.733 23.2408 12.5925C24.1004 13.4521 24.5833 14.6178 24.5833 15.8334C24.5833 17.049 24.1004 18.2148 23.2408 19.0743C22.3813 19.9339 21.2155 20.4167 19.9999 20.4167C18.7843 20.4167 17.6186 19.9339 16.759 19.0743C15.8995 18.2148 15.4166 17.049 15.4166 15.8334ZM20.0833 22.0834C21.1899 22.0834 22.1449 22.0834 22.9099 22.1868C23.7299 22.2968 24.5149 22.5451 25.1516 23.1818C25.7882 23.8184 26.0366 24.6034 26.1466 25.4234C26.2433 26.1401 26.2499 27.0234 26.2499 28.0451V35.4167H23.7499V28.3334C23.7499 27.1201 23.7466 26.3334 23.6699 25.7568C23.5966 25.2151 23.4799 25.0451 23.3833 24.9501C23.2866 24.8551 23.1182 24.7367 22.5766 24.6634C21.9983 24.5868 21.2133 24.5834 19.9999 24.5834C18.7866 24.5834 17.9999 24.5868 17.4233 24.6634C16.8816 24.7367 16.7116 24.8551 16.6166 24.9501C16.5216 25.0451 16.4033 25.2151 16.3299 25.7568C16.2533 26.3351 16.2499 27.1201 16.2499 28.3334V35.4167H13.7499V28.2501C13.7499 27.1434 13.7499 26.1884 13.8533 25.4234C13.9633 24.6034 14.2116 23.8184 14.8483 23.1818C15.4849 22.5451 16.2716 22.2968 17.0899 22.1868C17.8549 22.0834 18.8099 22.0834 19.9183 22.0834H20.0833Z" fill="#A8202D"/>
<path d="M17.9167 15.8333C17.9167 15.2808 18.1362 14.7509 18.5269 14.3602C18.9176 13.9695 19.4475 13.75 20.0001 13.75C20.5526 13.75 21.0825 13.9695 21.4732 14.3602C21.8639 14.7509 22.0834 15.2808 22.0834 15.8333C22.0834 16.3859 21.8639 16.9158 21.4732 17.3065C21.0825 17.6972 20.5526 17.9167 20.0001 17.9167C19.4475 17.9167 18.9176 17.6972 18.5269 17.3065C18.1362 16.9158 17.9167 16.3859 17.9167 15.8333Z" fill="#A8202D"/>
</svg>
