<svg width="40" height="40" viewBox="0 0 40 40" fill="none" xmlns="http://www.w3.org/2000/svg">
<path d="M4.375 2.5H25.625C28.04 2.5 30 4.46 30 6.875V20.625C30 21.7853 29.5391 22.8981 28.7186 23.7186C27.8981 24.5391 26.7853 25 25.625 25H17.6525L11.2175 31.4325C10.7076 31.9404 10.0588 32.2861 9.3528 32.4258C8.64679 32.5656 7.91522 32.4932 7.25028 32.2178C6.58535 31.9424 6.01682 31.4764 5.61636 30.8784C5.21591 30.2804 5.00144 29.5772 5 28.8575V25H4.375C3.21468 25 2.10188 24.5391 1.28141 23.7186C0.460936 22.8981 0 21.7853 0 20.625L0 6.875C0 4.46 1.96 2.5 4.375 2.5ZM3.75 6.875V20.625C3.75 20.97 4.03 21.25 4.375 21.25H6.875C7.37228 21.25 7.84919 21.4475 8.20083 21.7992C8.55246 22.1508 8.75 22.6277 8.75 23.125V28.6L15.55 21.8C15.9013 21.4483 16.3779 21.2504 16.875 21.25H25.625C25.7908 21.25 25.9497 21.1842 26.0669 21.0669C26.1842 20.9497 26.25 20.7908 26.25 20.625V6.875C26.25 6.70924 26.1842 6.55027 26.0669 6.43306C25.9497 6.31585 25.7908 6.25 25.625 6.25H4.375C4.20924 6.25 4.05027 6.31585 3.93306 6.43306C3.81585 6.55027 3.75 6.70924 3.75 6.875ZM36.25 11.875C36.25 11.7092 36.1842 11.5503 36.0669 11.4331C35.9497 11.3158 35.7908 11.25 35.625 11.25H34.375C33.8777 11.25 33.4008 11.0525 33.0492 10.7008C32.6975 10.3492 32.5 9.87228 32.5 9.375C32.5 8.87772 32.6975 8.40081 33.0492 8.04917C33.4008 7.69754 33.8777 7.5 34.375 7.5H35.625C38.04 7.5 40 9.46 40 11.875V25.625C40 26.7853 39.5391 27.8981 38.7186 28.7186C37.8981 29.5391 36.7853 30 35.625 30H35V33.8575C34.9986 34.5772 34.7841 35.2804 34.3836 35.8784C33.9832 36.4764 33.4146 36.9424 32.7497 37.2178C32.0848 37.4932 31.3532 37.5656 30.6472 37.4258C29.9412 37.2861 29.2924 36.9404 28.7825 36.4325L23.05 30.7C22.8032 30.4708 22.6228 30.1793 22.5277 29.8562C22.4327 29.5331 22.4266 29.1903 22.51 28.864C22.5934 28.5377 22.7633 28.2399 23.0018 28.0021C23.2403 27.7642 23.5385 27.5951 23.865 27.5125C24.191 27.4292 24.5333 27.4352 24.8562 27.5298C25.179 27.6243 25.4705 27.804 25.7 28.05L31.25 33.6V28.125C31.25 27.6277 31.4475 27.1508 31.7992 26.7992C32.1508 26.4475 32.6277 26.25 33.125 26.25H35.625C35.7908 26.25 35.9497 26.1842 36.0669 26.0669C36.1842 25.9497 36.25 25.7908 36.25 25.625V11.875Z" fill="#A8202D"/>
</svg>
