<svg width="40" height="40" viewBox="0 0 40 40" fill="none" xmlns="http://www.w3.org/2000/svg">
<path d="M31.6667 30.9832C31.2246 30.9832 30.8007 31.1588 30.4882 31.4713C30.1756 31.7839 30 32.2078 30 32.6498V36.2498C30 36.3603 29.9561 36.4663 29.878 36.5445C29.7998 36.6226 29.6938 36.6665 29.5833 36.6665H3.75C3.64503 36.6668 3.54381 36.6275 3.46656 36.5565C3.38931 36.4854 3.34173 36.3878 3.33333 36.2832V7.94984C3.33333 7.83933 3.37723 7.73335 3.45537 7.65521C3.53351 7.57707 3.63949 7.53317 3.75 7.53317H5.83333C6.27536 7.53317 6.69928 7.35758 7.01184 7.04502C7.32441 6.73245 7.5 6.30853 7.5 5.8665C7.5 5.42448 7.32441 5.00055 7.01184 4.68799C6.69928 4.37543 6.27536 4.19984 5.83333 4.19984H3.33333C2.44928 4.19984 1.60143 4.55103 0.976311 5.17615C0.35119 5.80127 0 6.64912 0 7.53317L0 36.6665C0 37.5506 0.35119 38.3984 0.976311 39.0235C1.60143 39.6486 2.44928 39.9998 3.33333 39.9998H30C30.8841 39.9998 31.7319 39.6486 32.357 39.0235C32.9821 38.3984 33.3333 37.5506 33.3333 36.6665V32.6498C33.3333 32.2078 33.1577 31.7839 32.8452 31.4713C32.5326 31.1588 32.1087 30.9832 31.6667 30.9832ZM27.5 7.49984H29.5833C29.6938 7.49984 29.7998 7.54374 29.878 7.62188C29.9561 7.70002 30 7.806 30 7.9165V9.1665C30 9.60853 30.1756 10.0325 30.4882 10.345C30.8007 10.6576 31.2246 10.8332 31.6667 10.8332C32.1087 10.8332 32.5326 10.6576 32.8452 10.345C33.1577 10.0325 33.3333 9.60853 33.3333 9.1665V7.49984C33.3333 6.61578 32.9821 5.76794 32.357 5.14281C31.7319 4.51769 30.8841 4.1665 30 4.1665H27.5C27.058 4.1665 26.6341 4.3421 26.3215 4.65466C26.0089 4.96722 25.8333 5.39114 25.8333 5.83317C25.8333 6.2752 26.0089 6.69912 26.3215 7.01168C26.6341 7.32424 27.058 7.49984 27.5 7.49984Z" fill="#A8202D"/>
<path d="M11.6667 9.16667H21.6667C22.3298 9.16667 22.9657 8.90327 23.4345 8.43443C23.9034 7.96559 24.1667 7.32971 24.1667 6.66667V5.83333C24.1667 5.17029 23.9034 4.53441 23.4345 4.06557C22.9657 3.59673 22.3298 3.33333 21.6667 3.33333H20.0001C20.0001 2.44928 19.6489 1.60143 19.0238 0.976311C18.3986 0.35119 17.5508 0 16.6667 0C15.7827 0 14.9348 0.35119 14.3097 0.976311C13.6846 1.60143 13.3334 2.44928 13.3334 3.33333H11.6667C11.0037 3.33333 10.3678 3.59673 9.89898 4.06557C9.43014 4.53441 9.16675 5.17029 9.16675 5.83333V6.66667C9.16675 7.32971 9.43014 7.96559 9.89898 8.43443C10.3678 8.90327 11.0037 9.16667 11.6667 9.16667ZM6.66675 16.6667C6.66675 17.1087 6.84234 17.5326 7.1549 17.8452C7.46746 18.1577 7.89139 18.3333 8.33341 18.3333H21.6667C22.1088 18.3333 22.5327 18.1577 22.8453 17.8452C23.1578 17.5326 23.3334 17.1087 23.3334 16.6667C23.3334 16.2246 23.1578 15.8007 22.8453 15.4882C22.5327 15.1756 22.1088 15 21.6667 15H8.33341C7.89139 15 7.46746 15.1756 7.1549 15.4882C6.84234 15.8007 6.66675 16.2246 6.66675 16.6667ZM8.33341 23.3333C7.89139 23.3333 7.46746 23.5089 7.1549 23.8215C6.84234 24.134 6.66675 24.558 6.66675 25C6.66675 25.442 6.84234 25.8659 7.1549 26.1785C7.46746 26.4911 7.89139 26.6667 8.33341 26.6667H15.8334C16.2754 26.6667 16.6994 26.4911 17.0119 26.1785C17.3245 25.8659 17.5001 25.442 17.5001 25C17.5001 24.558 17.3245 24.134 17.0119 23.8215C16.6994 23.5089 16.2754 23.3333 15.8334 23.3333H8.33341ZM39.0168 13.7333C38.3922 13.1125 37.5474 12.764 36.6667 12.764C35.7861 12.764 34.9413 13.1125 34.3167 13.7333L21.2001 26.85C21.1182 26.9293 21.0555 27.0262 21.0167 27.1333L18.6501 33.0167C18.5912 33.1685 18.5772 33.334 18.6097 33.4936C18.6422 33.6531 18.7199 33.8 18.8334 33.9167C18.9477 34.034 19.0947 34.1142 19.2552 34.1468C19.4157 34.1795 19.5823 34.1632 19.7334 34.1L25.6334 31.75C25.7376 31.7054 25.8334 31.6434 25.9167 31.5667L39.0168 18.45C39.3267 18.1404 39.5725 17.7728 39.7403 17.3681C39.908 16.9635 39.9944 16.5297 39.9944 16.0917C39.9944 15.6536 39.908 15.2199 39.7403 14.8152C39.5725 14.4105 39.3267 14.0429 39.0168 13.7333Z" fill="#A8202D"/>
</svg>
