<svg width="14" height="14" viewBox="0 0 14 14" fill="none" xmlns="http://www.w3.org/2000/svg">
<path fill-rule="evenodd" clip-rule="evenodd" d="M9.2102 1.00102H4.7502C4.42519 0.989048 4.1051 1.08303 3.83816 1.26881C3.57121 1.45459 3.37188 1.72209 3.2702 2.03102L2.1902 4.70302C1.6022 4.83502 1.01853 4.99168 0.439197 5.17302C0.282507 5.22194 0.151355 5.33055 0.0740779 5.47538C-0.00319939 5.6202 -0.0203982 5.78962 0.0261973 5.94702L1.9882 12.525C2.02673 12.6539 2.10584 12.767 2.21376 12.8473C2.32168 12.9277 2.45265 12.9711 2.5872 12.971H11.4142C11.6902 12.971 11.9342 12.79 12.0132 12.525L13.9742 5.94702C14.0211 5.78961 14.0042 5.62006 13.9271 5.47503C13.85 5.33 13.7189 5.22114 13.5622 5.17202C12.9842 4.99128 12.3991 4.83448 11.8082 4.70202L10.6902 2.02802C10.5878 1.71984 10.3882 1.45322 10.1213 1.2682C9.85442 1.08319 9.5347 0.988783 9.2102 1.00102ZM4.6252 8.52302C4.6252 8.17802 4.9052 7.89802 5.2502 7.89802H6.3752V6.77302C6.3752 6.60726 6.44105 6.44828 6.55826 6.33107C6.67547 6.21386 6.83444 6.14802 7.0002 6.14802C7.16596 6.14802 7.32493 6.21386 7.44214 6.33107C7.55935 6.44828 7.6252 6.60726 7.6252 6.77302V7.89802H8.7502C8.91596 7.89802 9.07493 7.96386 9.19214 8.08108C9.30935 8.19829 9.3752 8.35726 9.3752 8.52302C9.3752 8.68878 9.30935 8.84775 9.19214 8.96496C9.07493 9.08217 8.91596 9.14802 8.7502 9.14802H7.6252V10.273C7.6252 10.4388 7.55935 10.5977 7.44214 10.715C7.32493 10.8322 7.16596 10.898 7.0002 10.898C6.83444 10.898 6.67547 10.8322 6.55826 10.715C6.44105 10.5977 6.3752 10.4388 6.3752 10.273V9.14802H5.2502C5.08444 9.14802 4.92547 9.08217 4.80826 8.96496C4.69105 8.84775 4.6252 8.68878 4.6252 8.52302ZM1.4032 6.19102L3.0532 11.722H10.9482L12.5982 6.19102C8.93701 5.16535 5.06439 5.16535 1.4032 6.19102Z" fill="#374151"/>
</svg>
