<svg width="200" height="200" viewBox="0 0 200 200" fill="none" xmlns="http://www.w3.org/2000/svg">
<g opacity="0.8">
<path fill-rule="evenodd" clip-rule="evenodd" d="M31.25 13.0625C29.5924 13.0625 28.0027 13.721 26.8306 14.8931C25.6585 16.0652 25 17.6549 25 19.3125V155.688C25 157.345 25.6585 158.935 26.8306 160.107C28.0027 161.279 29.5924 161.938 31.25 161.938H143.75C145.408 161.938 146.997 161.279 148.169 160.107C149.342 158.935 150 157.345 150 155.688V67.05C150.002 66.2108 149.834 65.3798 149.508 64.6067C149.181 63.8336 148.703 63.1341 148.1 62.55L98.8875 14.85C97.7235 13.7151 96.1632 13.0784 94.5375 13.075L31.25 13.0625ZM128.325 60.8L100.787 34.0875V60.8H128.325ZM75 68.75H50V56.25H75V68.75ZM125 100H50V87.5H125V100ZM50 131.25H125V118.75H50V131.25Z" fill="#A8202D"/>
<path d="M162.5 93.75V175H56.25V187.5H168.75C170.408 187.5 171.997 186.842 173.169 185.669C174.342 184.497 175 182.908 175 181.25V93.75H162.5Z" fill="#A8202D"/>
</g>
</svg>
